<svg width="32" height="32" viewBox="0 0 32 32" fill="none" xmlns="http://www.w3.org/2000/svg">
<path d="M25.8134 9.63793C26.6418 8.80953 26.6418 7.46641 25.8134 6.638L25.362 6.18652C24.5336 5.35812 23.1904 5.35812 22.362 6.18652L16 12.5486L9.6379 6.18653C8.80949 5.35812 7.46638 5.35812 6.63797 6.18652L6.18649 6.638C5.35808 7.46641 5.35808 8.80953 6.18649 9.63793L12.5486 16L6.18649 22.3621C5.35809 23.1905 5.35808 24.5336 6.18649 25.362L6.63797 25.8135C7.46638 26.6419 8.80949 26.6419 9.6379 25.8135L16 19.4514L22.362 25.8135C23.1904 26.6419 24.5336 26.6419 25.362 25.8135L25.8134 25.362C26.6419 24.5336 26.6418 23.1905 25.8134 22.3621L19.4514 16L25.8134 9.63793Z" fill="white"/>
</svg>
